# xmcd
#
# Track frame offsets: 
#        150
#        15677
#        35867
#        69057
#        85543
#        108355
#        124956
#        153781
#        169873
#        187479
#        205030
#
# Disc length: 3023 seconds
#
# Revision: 2
# Processed by: cddbd v1.5.2PL0 Copyright (c) Steve Scherf et al.
# Submitted via: ExactAudioCopy v0.99pb4
#
DISCID=8d0bcd0b
DTITLE=Shawn Pittman - Full Circle
DYEAR=2001
DGENRE=Blues
TTITLE0=New King in Town
TTITLE1=Runnin' Shoes
TTITLE2=I Smell Trouble
TTITLE3=Distress Signal
TTITLE4=It's Your Turn
TTITLE5=One of These Days
TTITLE6=Can't Take That Away
TTITLE7=It Takes a Lot To Laugh, It Takes a Train To Cry
TTITLE8=One Thing on My Mind
TTITLE9=Hell or High Water
TTITLE10=Movin'
EXTD=
EXTT0=
EXTT1=
EXTT2=
EXTT3=
EXTT4=
EXTT5=
EXTT6=
EXTT7=
EXTT8=
EXTT9=
EXTT10=
PLAYORDER=
